<svg width="1323" height="184" viewBox="0 0 1323 184" fill="none" xmlns="http://www.w3.org/2000/svg">
<path d="M42.66 138H15.48C14.16 138 13.08 137.58 12.24 136.74C11.52 135.9 11.16 134.88 11.16 133.68V10.74C11.16 9.54 11.52 8.52 12.24 7.67999C13.08 6.84 14.16 6.42 15.48 6.42H42.66C43.86 6.42 44.88 6.84 45.72 7.67999C46.56 8.52 46.98 9.54 46.98 10.74V133.68C46.98 134.88 46.56 135.9 45.72 136.74C44.88 137.58 43.86 138 42.66 138ZM194.732 10.56V133.68C194.732 134.88 194.312 135.9 193.472 136.74C192.632 137.58 191.612 138 190.412 138H163.772C162.572 138 161.312 137.64 159.992 136.92C158.672 136.2 157.652 135.36 156.932 134.4L109.952 68.34C109.232 67.38 108.452 67.02 107.612 67.26C106.892 67.38 106.532 68.04 106.532 69.24V133.68C106.532 134.88 106.112 135.9 105.272 136.74C104.432 137.58 103.412 138 102.212 138H75.3919C74.1919 138 73.1719 137.58 72.3319 136.74C71.4919 135.9 71.0719 134.88 71.0719 133.68V10.56C71.0719 9.35999 71.4919 8.33999 72.3319 7.5C73.1719 6.65999 74.1919 6.23999 75.3919 6.23999H102.392C103.592 6.23999 104.852 6.59999 106.172 7.32C107.492 7.92 108.512 8.69999 109.232 9.65999L156.032 75.72C156.752 76.68 157.472 77.1 158.192 76.98C159.032 76.86 159.452 76.2 159.452 75V10.56C159.452 9.35999 159.872 8.33999 160.712 7.5C161.552 6.65999 162.572 6.23999 163.772 6.23999H190.412C191.612 6.23999 192.632 6.65999 193.472 7.5C194.312 8.33999 194.732 9.35999 194.732 10.56ZM348.972 102.9C345.492 108.54 341.652 113.7 337.452 118.38C333.252 122.94 328.512 126.84 323.232 130.08C318.072 133.32 312.312 135.84 305.952 137.64C299.592 139.44 292.572 140.34 284.892 140.34C275.292 140.34 266.292 138.54 257.892 134.94C249.492 131.34 242.112 126.48 235.752 120.36C229.512 114.24 224.592 107.04 220.992 98.76C217.392 90.48 215.592 81.66 215.592 72.3C215.592 62.94 217.392 54.12 220.992 45.84C224.592 37.56 229.512 30.36 235.752 24.24C242.112 18.12 249.492 13.26 257.892 9.65999C266.292 6.05999 275.292 4.25999 284.892 4.25999C292.812 4.25999 299.952 5.15999 306.312 6.95999C312.672 8.75999 318.432 11.28 323.592 14.52C328.752 17.76 333.372 21.72 337.452 26.4C341.652 30.96 345.492 36 348.972 41.52C349.572 42.48 349.692 43.5 349.332 44.58C348.972 45.66 348.252 46.44 347.172 46.92L321.612 57C320.412 57.48 319.212 57.48 318.012 57C316.812 56.52 315.912 55.8 315.312 54.84C311.832 49.32 307.632 45.12 302.712 42.24C297.792 39.24 291.852 37.74 284.892 37.74C280.332 37.74 276.012 38.7 271.932 40.62C267.972 42.54 264.492 45.12 261.492 48.36C258.492 51.48 256.152 55.14 254.472 59.34C252.792 63.54 251.952 67.86 251.952 72.3C251.952 76.86 252.792 81.24 254.472 85.44C256.152 89.52 258.492 93.12 261.492 96.24C264.492 99.36 267.972 101.88 271.932 103.8C276.012 105.72 280.332 106.68 284.892 106.68C291.492 106.68 297.432 105.12 302.712 102C308.112 98.76 312.372 94.62 315.492 89.58C316.092 88.62 316.932 87.9 318.012 87.42C319.212 86.94 320.412 86.94 321.612 87.42L347.172 97.5C348.252 97.98 348.972 98.76 349.332 99.84C349.692 100.8 349.572 101.82 348.972 102.9ZM362.513 10.74C362.513 9.54 362.933 8.52 363.773 7.67999C364.613 6.84 365.633 6.42 366.833 6.42H394.013C395.213 6.42 396.233 6.84 397.073 7.67999C397.913 8.52 398.333 9.54 398.333 10.74V83.64C398.333 88.32 399.053 92.22 400.493 95.34C402.053 98.34 403.913 100.74 406.073 102.54C408.353 104.22 410.753 105.42 413.273 106.14C415.793 106.86 418.073 107.22 420.113 107.22C422.153 107.22 424.433 106.86 426.953 106.14C429.473 105.42 431.813 104.22 433.973 102.54C436.133 100.74 437.933 98.34 439.373 95.34C440.933 92.22 441.713 88.32 441.713 83.64V10.74C441.713 9.54 442.133 8.52 442.973 7.67999C443.813 6.84 444.833 6.42 446.033 6.42H473.213C474.413 6.42 475.433 6.84 476.273 7.67999C477.113 8.52 477.533 9.54 477.533 10.74V83.64C477.533 92.16 476.153 99.9 473.393 106.86C470.753 113.82 466.913 119.76 461.873 124.68C456.833 129.6 450.773 133.44 443.693 136.2C436.613 138.84 428.753 140.16 420.113 140.16C411.473 140.16 403.613 138.84 396.533 136.2C389.453 133.44 383.393 129.6 378.353 124.68C373.313 119.76 369.413 113.82 366.653 106.86C363.893 99.9 362.513 92.16 362.513 83.64V10.74Z" fill="white"/>
<path d="M759.9 70.14C761.82 71.22 763.74 72.54 765.66 74.1C767.58 75.66 769.32 77.58 770.88 79.86C772.56 82.14 773.88 84.78 774.84 87.78C775.92 90.78 776.46 94.2 776.46 98.04C776.46 105.84 775.2 112.32 772.68 117.48C770.28 122.52 766.98 126.6 762.78 129.72C758.58 132.72 753.72 134.88 748.2 136.2C742.8 137.4 737.1 138 731.1 138H674.04C672.84 138 671.82 137.58 670.98 136.74C670.14 135.9 669.72 134.88 669.72 133.68V10.56C669.72 9.35999 670.14 8.33999 670.98 7.5C671.82 6.65999 672.84 6.23999 674.04 6.23999H728.4C734.16 6.23999 739.68 6.89999 744.96 8.22C750.24 9.42 754.86 11.46 758.82 14.34C762.9 17.22 766.14 21 768.54 25.68C771.06 30.24 772.32 35.88 772.32 42.6C772.32 48 770.94 52.68 768.18 56.64C765.54 60.6 762.66 63.72 759.54 66C757.38 67.56 757.5 68.94 759.9 70.14ZM709.68 56.28H726.42C728.82 56.28 730.74 55.38 732.18 53.58C733.62 51.66 734.34 49.56 734.34 47.28C734.34 45.12 733.44 43.26 731.64 41.7C729.96 40.14 728.34 39.36 726.78 39.36H709.68C708.48 39.36 707.46 39.78 706.62 40.62C705.78 41.46 705.36 42.48 705.36 43.68V51.96C705.36 53.16 705.78 54.18 706.62 55.02C707.46 55.86 708.48 56.28 709.68 56.28ZM728.58 85.98H709.68C708.48 85.98 707.46 86.4 706.62 87.24C705.78 88.08 705.36 89.1 705.36 90.3V100.56C705.36 101.76 705.78 102.78 706.62 103.62C707.46 104.46 708.48 104.88 709.68 104.88H729.84C732 104.88 734.04 103.98 735.96 102.18C737.88 100.38 738.84 98.28 738.84 95.88C738.84 93.72 737.88 91.56 735.96 89.4C734.16 87.12 731.7 85.98 728.58 85.98ZM831.391 43.68V51.24C831.391 52.44 831.811 53.46 832.651 54.3C833.491 55.14 834.511 55.56 835.711 55.56H884.491C885.691 55.56 886.711 55.98 887.551 56.82C888.391 57.66 888.811 58.68 888.811 59.88V84.72C888.811 85.92 888.391 86.94 887.551 87.78C886.711 88.62 885.691 89.04 884.491 89.04H835.711C834.511 89.04 833.491 89.46 832.651 90.3C831.811 91.14 831.391 92.16 831.391 93.36V100.2C831.391 101.4 831.811 102.42 832.651 103.26C833.491 104.1 834.511 104.52 835.711 104.52H891.691C892.891 104.52 893.911 104.94 894.751 105.78C895.591 106.62 896.011 107.64 896.011 108.84V133.68C896.011 134.88 895.591 135.9 894.751 136.74C893.911 137.58 892.891 138 891.691 138H800.071C798.871 138 797.851 137.58 797.011 136.74C796.171 135.9 795.751 134.88 795.751 133.68V10.56C795.751 9.35999 796.171 8.33999 797.011 7.5C797.851 6.65999 798.871 6.23999 800.071 6.23999H891.691C892.891 6.23999 893.911 6.65999 894.751 7.5C895.591 8.33999 896.011 9.35999 896.011 10.56V35.04C896.011 36.24 895.591 37.26 894.751 38.1C893.911 38.94 892.891 39.36 891.691 39.36H835.711C834.511 39.36 833.491 39.78 832.651 40.62C831.811 41.46 831.391 42.48 831.391 43.68ZM1042.64 10.56V133.68C1042.64 134.88 1042.22 135.9 1041.38 136.74C1040.54 137.58 1039.52 138 1038.32 138H1011.68C1010.48 138 1009.22 137.64 1007.9 136.92C1006.58 136.2 1005.56 135.36 1004.84 134.4L957.862 68.34C957.142 67.38 956.362 67.02 955.522 67.26C954.802 67.38 954.442 68.04 954.442 69.24V133.68C954.442 134.88 954.022 135.9 953.182 136.74C952.342 137.58 951.322 138 950.122 138H923.302C922.102 138 921.082 137.58 920.242 136.74C919.402 135.9 918.982 134.88 918.982 133.68V10.56C918.982 9.35999 919.402 8.33999 920.242 7.5C921.082 6.65999 922.102 6.23999 923.302 6.23999H950.302C951.502 6.23999 952.762 6.59999 954.082 7.32C955.402 7.92 956.422 8.69999 957.142 9.65999L1003.94 75.72C1004.66 76.68 1005.38 77.1 1006.1 76.98C1006.94 76.86 1007.36 76.2 1007.36 75V10.56C1007.36 9.35999 1007.78 8.33999 1008.62 7.5C1009.46 6.65999 1010.48 6.23999 1011.68 6.23999H1038.32C1039.52 6.23999 1040.54 6.65999 1041.38 7.5C1042.22 8.33999 1042.64 9.35999 1042.64 10.56ZM1196.88 102.9C1193.4 108.54 1189.56 113.7 1185.36 118.38C1181.16 122.94 1176.42 126.84 1171.14 130.08C1165.98 133.32 1160.22 135.84 1153.86 137.64C1147.5 139.44 1140.48 140.34 1132.8 140.34C1123.2 140.34 1114.2 138.54 1105.8 134.94C1097.4 131.34 1090.02 126.48 1083.66 120.36C1077.42 114.24 1072.5 107.04 1068.9 98.76C1065.3 90.48 1063.5 81.66 1063.5 72.3C1063.5 62.94 1065.3 54.12 1068.9 45.84C1072.5 37.56 1077.42 30.36 1083.66 24.24C1090.02 18.12 1097.4 13.26 1105.8 9.65999C1114.2 6.05999 1123.2 4.25999 1132.8 4.25999C1140.72 4.25999 1147.86 5.15999 1154.22 6.95999C1160.58 8.75999 1166.34 11.28 1171.5 14.52C1176.66 17.76 1181.28 21.72 1185.36 26.4C1189.56 30.96 1193.4 36 1196.88 41.52C1197.48 42.48 1197.6 43.5 1197.24 44.58C1196.88 45.66 1196.16 46.44 1195.08 46.92L1169.52 57C1168.32 57.48 1167.12 57.48 1165.92 57C1164.72 56.52 1163.82 55.8 1163.22 54.84C1159.74 49.32 1155.54 45.12 1150.62 42.24C1145.7 39.24 1139.76 37.74 1132.8 37.74C1128.24 37.74 1123.92 38.7 1119.84 40.62C1115.88 42.54 1112.4 45.12 1109.4 48.36C1106.4 51.48 1104.06 55.14 1102.38 59.34C1100.7 63.54 1099.86 67.86 1099.86 72.3C1099.86 76.86 1100.7 81.24 1102.38 85.44C1104.06 89.52 1106.4 93.12 1109.4 96.24C1112.4 99.36 1115.88 101.88 1119.84 103.8C1123.92 105.72 1128.24 106.68 1132.8 106.68C1139.4 106.68 1145.34 105.12 1150.62 102C1156.02 98.76 1160.28 94.62 1163.4 89.58C1164 88.62 1164.84 87.9 1165.92 87.42C1167.12 86.94 1168.32 86.94 1169.52 87.42L1195.08 97.5C1196.16 97.98 1196.88 98.76 1197.24 99.84C1197.6 100.8 1197.48 101.82 1196.88 102.9ZM1321.08 11.46L1276.08 84.36C1275.48 85.44 1274.94 86.76 1274.46 88.32C1273.98 89.88 1273.74 91.26 1273.74 92.46V133.68C1273.74 134.88 1273.32 135.9 1272.48 136.74C1271.64 137.58 1270.62 138 1269.42 138H1242.24C1241.04 138 1240.02 137.58 1239.18 136.74C1238.34 135.9 1237.92 134.88 1237.92 133.68V92.64C1237.92 91.44 1237.68 90.06 1237.2 88.5C1236.84 86.82 1236.36 85.5 1235.76 84.54C1228.56 72.18 1221.18 60.06 1213.62 48.18C1206.18 36.3 1198.74 24.06 1191.3 11.46C1190.7 10.38 1190.58 9.3 1190.94 8.22C1191.3 7.02 1192.08 6.42 1193.28 6.42H1225.32C1226.52 6.42 1227.72 6.78 1228.92 7.5C1230.24 8.21999 1231.2 9.11999 1231.8 10.2L1253.94 48.72C1254.54 49.68 1255.26 50.16 1256.1 50.16C1256.94 50.16 1257.66 49.68 1258.26 48.72L1280.22 10.2C1280.82 9.11999 1281.72 8.21999 1282.92 7.5C1284.24 6.78 1285.5 6.42 1286.7 6.42H1319.1C1320.3 6.42 1321.14 6.84 1321.62 7.67999C1322.22 8.52 1322.04 9.78 1321.08 11.46Z" fill="white"/>
<path d="M516.222 0C506.723 0 499 7.73555 499 17.25V112.125C499 121.639 506.723 129.375 516.222 129.375H520.528L524.833 138H542.056L546.361 129.375H606.639L610.944 138H628.167L632.472 129.375H636.778C646.277 129.375 654 121.639 654 112.125V17.25C654 7.73555 646.277 0 636.778 0H516.222ZM559.278 86.25C571.172 86.25 580.806 76.6008 580.806 64.6875C580.806 52.7742 571.172 43.125 559.278 43.125C547.384 43.125 537.75 52.7742 537.75 64.6875C537.75 76.6008 547.384 86.25 559.278 86.25ZM559.278 107.812C535.49 107.812 516.222 88.5141 516.222 64.6875C516.222 40.8609 535.49 21.5625 559.278 21.5625C583.066 21.5625 602.333 40.8609 602.333 64.6875C602.333 88.5141 583.066 107.812 559.278 107.812ZM628.167 59.6473V90.5625C628.167 92.9344 626.229 94.875 623.861 94.875C621.493 94.875 619.556 92.9344 619.556 90.5625V59.6473C614.55 57.8684 610.944 53.0707 610.944 47.4375C610.944 40.2949 616.73 34.5 623.861 34.5C630.992 34.5 636.778 40.2949 636.778 47.4375C636.778 53.0707 633.172 57.8684 628.167 59.6473Z" fill="#2FE436"/>
</svg>
